<?xml version="1.0" standalone="no"?>
<!DOCTYPE svg PUBLIC "-//W3C//DTD SVG 20010904//EN"
 "http://www.w3.org/TR/2001/REC-SVG-20010904/DTD/svg10.dtd">
<svg version="1.0" xmlns="http://www.w3.org/2000/svg"
 width="513.000000pt" height="513.000000pt" viewBox="0 0 513.000000 513.000000"
 preserveAspectRatio="xMidYMid meet">
<metadata>
Created by potrace 1.11, written by Peter Selinger 2001-2013
</metadata>
<g transform="translate(0.000000,513.000000) scale(0.100000,-0.100000)"
fill="#000000" stroke="none">
<path d="M930 4791 c0 -6 4 -13 10 -16 6 -3 7 1 4 9 -7 18 -14 21 -14 7z"/>
<path d="M950 4751 c0 -6 4 -13 10 -16 6 -3 7 1 4 9 -7 18 -14 21 -14 7z"/>
<path d="M960 4716 c0 -2 8 -10 18 -17 15 -13 16 -12 3 4 -13 16 -21 21 -21
13z"/>
<path d="M1005 4625 c14 -33 30 -69 35 -80 11 -24 31 -78 32 -85 0 -3 4 -11
10 -18 6 -7 9 -14 7 -16 -2 -2 -52 -7 -111 -10 -58 -3 -113 -9 -122 -12 -20
-8 -43 -52 -40 -79 1 -11 5 -60 8 -110 4 -49 9 -106 11 -125 2 -19 6 -71 9
-115 4 -44 9 -106 11 -137 3 -31 8 -101 11 -155 2 -54 7 -141 10 -193 8 -127
8 -1359 0 -1530 -8 -185 -15 -293 -31 -482 -11 -123 -64 -238 -135 -288 -56
-40 -116 -52 -280 -56 -85 -2 -157 -4 -160 -5 -3 -1 -9 0 -15 1 -12 3 -111 0
-145 -4 -47 -5 -66 -16 -83 -45 -21 -35 -22 -59 -3 -80 19 -21 81 -148 91
-186 11 -42 13 -66 20 -185 4 -58 8 -121 10 -140 2 -19 5 -63 6 -97 2 -56 15
-83 32 -67 8 9 206 15 442 16 194 0 274 5 365 24 14 3 39 8 55 11 17 3 38 9
48 14 9 5 17 8 17 5 0 -6 111 39 175 71 92 46 205 141 272 228 87 115 163 342
181 544 8 96 7 302 -1 406 -4 44 -10 125 -13 180 -3 55 -7 132 -9 170 -2 39
-7 124 -10 190 -4 66 -8 156 -11 200 -2 44 -6 168 -9 275 -2 107 -5 197 -6
200 -1 3 0 10 1 15 1 6 4 46 6 90 1 44 5 92 7 107 2 15 1 25 -4 23 -4 -3 -10
5 -14 17 -7 26 -14 44 -41 103 -10 22 -17 46 -16 53 2 6 -1 12 -6 12 -6 0 -13
7 -16 16 -3 8 -2 12 4 9 6 -3 10 -1 10 4 0 6 -6 11 -14 11 -19 0 -31 51 -14
62 9 6 8 8 -6 6 -12 -2 -21 5 -27 20 -6 17 -6 21 4 17 6 -4 4 0 -6 8 -10 8
-19 24 -20 36 -1 12 -5 21 -9 21 -4 0 -8 4 -8 9 0 5 -14 40 -31 78 -59 130
-66 148 -74 173 -4 14 -11 30 -15 35 -4 6 -31 66 -60 134 -29 69 -67 156 -85
195 -18 39 -81 179 -140 311 -58 132 -111 245 -116 250 -6 6 2 -17 16 -50z"/>
<path d="M4286 4279 c-9 -13 -16 -29 -16 -36 0 -8 -12 -13 -30 -13 -16 0 -30
-5 -30 -10 0 -6 -15 -52 -34 -103 -65 -173 -369 -1012 -398 -1097 -16 -47 -33
-94 -39 -105 -5 -11 -27 -69 -48 -130 -22 -60 -62 -173 -90 -250 -28 -77 -61
-167 -72 -200 -11 -33 -24 -69 -29 -80 -5 -11 -19 -47 -30 -80 -38 -106 -77
-216 -145 -400 -37 -99 -68 -184 -69 -190 -4 -14 -15 -44 -36 -95 l-19 -45
-16 40 c-9 22 -22 54 -30 70 -7 17 -34 82 -60 145 -26 63 -70 169 -97 235 -27
66 -88 215 -134 330 -47 116 -92 224 -99 240 -8 17 -23 55 -35 85 -11 30 -25
65 -30 78 -6 12 -14 32 -20 45 -5 12 -44 108 -86 212 -42 105 -81 201 -87 215
-5 14 -11 30 -13 35 -1 6 -15 42 -31 80 -17 39 -40 102 -52 140 -12 39 -42
131 -66 205 -23 74 -54 171 -68 215 -99 316 -130 406 -143 420 -14 14 -36 20
-58 16 -5 -1 -54 -4 -110 -7 -55 -2 -139 -7 -186 -9 -47 -3 -134 -7 -195 -10
-60 -3 -146 -8 -190 -11 -44 -3 -90 -5 -102 -5 -12 0 -24 -3 -27 -7 -3 -4 13
-46 36 -93 41 -86 158 -356 163 -374 2 -10 7 -21 38 -97 9 -21 14 -38 11 -38
-2 0 3 -11 12 -25 8 -13 13 -28 10 -34 -3 -5 -2 -11 3 -13 5 -1 11 -12 13 -23
1 -11 7 -23 11 -26 5 -3 9 -12 11 -20 1 -8 10 -32 20 -54 10 -22 19 -49 22
-59 2 -11 8 -24 13 -29 5 -5 7 -16 4 -24 -3 -8 2 -20 12 -27 9 -6 18 -24 18
-38 1 -14 6 -24 11 -20 5 3 7 -2 3 -11 -3 -10 -2 -17 2 -17 5 0 12 -7 15 -16
4 -10 2 -13 -7 -9 -6 4 -4 0 5 -8 10 -8 19 -26 20 -41 1 -14 7 -26 13 -26 5 0
3 -5 -5 -10 -13 -8 -12 -10 4 -10 12 0 16 -5 12 -15 -3 -8 -2 -15 3 -15 4 0
13 -11 19 -25 12 -25 6 -31 -23 -25 -5 1 -6 -2 -2 -7 5 -4 16 -8 24 -8 17 0
47 -70 37 -86 -3 -5 0 -8 8 -7 8 2 12 -4 10 -14 -2 -10 2 -18 8 -18 5 0 10
-11 10 -25 0 -14 5 -25 10 -25 12 0 14 -26 3 -33 -5 -2 -3 -2 4 -1 15 4 24
-21 11 -34 -6 -6 -6 -12 3 -17 8 -6 10 -4 4 6 -7 12 -6 12 7 1 17 -13 32 -56
17 -46 -5 3 -6 -2 -3 -10 3 -9 11 -16 16 -16 6 0 8 -9 5 -20 -3 -11 -1 -18 3
-15 8 5 36 -63 32 -77 -1 -5 2 -8 8 -8 6 0 10 -3 9 -7 -1 -5 2 -17 5 -28 4
-11 8 -24 8 -30 1 -5 8 -16 15 -24 16 -15 11 -37 -6 -33 -7 1 -10 -2 -6 -7 3
-6 12 -8 19 -5 9 4 18 -8 27 -33 7 -21 12 -41 11 -45 -1 -5 3 -8 10 -8 6 0 8
-3 5 -7 -4 -3 -2 -12 4 -19 6 -8 9 -20 6 -29 -4 -8 1 -19 11 -24 9 -6 13 -11
7 -11 -5 0 -3 -5 5 -10 13 -9 13 -11 0 -20 -13 -8 -12 -10 4 -10 12 0 16 -5
12 -15 -3 -8 0 -15 6 -15 6 0 9 -3 5 -6 -3 -4 1 -13 9 -21 8 -8 12 -19 9 -24
-4 -5 -1 -9 5 -9 6 0 9 -4 5 -9 -3 -5 -1 -12 5 -16 5 -3 10 -17 10 -31 0 -13
4 -24 8 -24 10 0 37 -69 36 -92 -1 -10 2 -15 7 -13 6 5 18 -17 25 -47 1 -5 3
-11 4 -15 1 -5 2 -11 1 -15 0 -5 3 -8 8 -8 10 0 37 -69 33 -82 -1 -5 2 -8 8
-8 5 0 10 -9 10 -19 0 -11 5 -23 11 -26 6 -4 8 -14 5 -22 -3 -8 -2 -12 3 -9 8
5 87 -182 83 -196 -1 -5 2 -8 7 -8 5 0 13 -10 17 -22 3 -13 15 -41 25 -63 9
-23 19 -47 21 -55 2 -8 5 -17 8 -20 13 -13 30 -63 24 -72 -4 -7 -2 -8 4 -4 7
4 12 3 12 -3 0 -6 11 -34 24 -63 13 -29 62 -138 109 -243 47 -104 96 -215 110
-245 14 -30 35 -77 47 -105 12 -27 32 -72 45 -100 13 -27 37 -81 55 -120 57
-128 50 -120 100 -121 62 -2 318 -18 441 -28 30 -3 61 3 91 16 39 17 49 27 68
71 24 58 134 348 157 417 9 25 20 56 26 70 5 14 11 30 13 35 1 6 35 98 75 205
39 107 80 218 90 245 10 28 29 82 44 120 14 39 27 75 29 80 2 6 8 24 15 40 7
17 21 55 31 85 18 54 42 115 60 155 5 11 20 52 34 90 13 39 31 86 39 105 24
59 30 75 33 85 1 6 8 24 15 40 6 17 13 35 15 40 4 15 124 325 139 360 7 17 32
79 55 140 23 60 46 117 51 128 6 10 12 26 14 35 2 9 19 54 39 100 19 45 36 84
36 87 1 9 177 458 235 600 5 11 9 22 10 25 1 3 9 22 18 44 9 21 17 42 17 47 0
5 4 17 10 27 5 9 26 58 45 107 20 50 40 99 45 110 39 90 119 300 115 303 -3 3
-78 6 -167 8 -90 2 -188 5 -218 8 -163 14 -198 17 -225 21 -16 2 -61 7 -100
10 -78 8 -88 11 -82 29 3 7 2 18 -3 25 -5 10 -12 7 -24 -10z"/>
<path d="M1730 3010 c0 -5 5 -10 11 -10 5 0 7 5 4 10 -3 6 -8 10 -11 10 -2 0
-4 -4 -4 -10z"/>
<path d="M1755 2890 c-3 -5 -1 -10 4 -10 6 0 11 5 11 10 0 6 -2 10 -4 10 -3 0
-8 -4 -11 -10z"/>
<path d="M1916 2457 c3 -10 9 -15 12 -12 3 3 0 11 -7 18 -10 9 -11 8 -5 -6z"/>
</g>
</svg>
